<?xml version="1.0" standalone="no"?>
<!DOCTYPE svg PUBLIC "-//W3C//DTD SVG 20010904//EN"
 "http://www.w3.org/TR/2001/REC-SVG-20010904/DTD/svg10.dtd">
<svg version="1.0" xmlns="http://www.w3.org/2000/svg"
 width="700.000000pt" height="700.000000pt" viewBox="0 0 700.000000 700.000000"
 preserveAspectRatio="xMidYMid meet">
<metadata>
Created by potrace 1.11, written by Peter Selinger 2001-2013
</metadata>
<g transform="translate(0.000000,700.000000) scale(0.100000,-0.100000)"
fill="#000000" stroke="none">
<path d="M3441 6425 c-39 -22 -70 -65 -76 -109 -4 -22 -5 -203 -3 -401 l3
-360 24 -34 c61 -85 185 -74 234 20 16 31 17 67 15 419 l-3 385 -24 33 c-36
51 -119 74 -170 47z"/>
<path d="M1461 5603 c-75 -39 -101 -127 -57 -193 33 -49 515 -529 550 -547 38
-20 114 -13 145 13 55 46 67 127 28 185 -26 38 -474 488 -523 525 -42 33 -100
39 -143 17z"/>
<path d="M5411 5599 c-40 -24 -529 -516 -546 -550 -34 -64 -15 -136 44 -176
39 -27 98 -30 139 -9 37 20 533 518 554 557 21 39 17 102 -9 137 -41 56 -126
75 -182 41z"/>
<path d="M3330 4795 c-503 -71 -911 -408 -1069 -883 -223 -670 129 -1396 795
-1640 278 -103 609 -103 886 -1 381 140 669 435 797 816 16 50 38 131 47 180
19 100 25 296 12 380 -5 31 -10 68 -12 82 -11 85 -61 240 -113 347 -29 58
-119 204 -133 214 -4 3 -11 13 -16 22 -10 18 -88 100 -156 164 -93 88 -271
195 -410 248 -66 24 -184 56 -231 62 -15 2 -39 6 -55 9 -55 12 -259 12 -342 0z"/>
<path d="M652 3629 c-50 -15 -90 -77 -87 -134 2 -54 27 -93 76 -118 31 -16 67
-17 419 -15 385 3 385 3 418 26 39 28 53 53 58 101 4 44 -21 97 -59 125 -28
20 -40 21 -410 23 -222 1 -396 -2 -415 -8z"/>
<path d="M5540 3622 c-46 -25 -70 -59 -75 -107 -5 -48 18 -99 58 -129 27 -20
41 -21 403 -24 243 -2 388 1 414 8 106 29 129 176 38 242 l-33 23 -385 3
c-361 2 -387 1 -420 -16z"/>
<path d="M4944 2147 c-80 -26 -119 -120 -81 -193 16 -30 491 -511 539 -545
126 -90 279 72 185 194 -32 42 -483 493 -522 522 -35 27 -80 35 -121 22z"/>
<path d="M1949 2135 c-30 -16 -506 -488 -538 -533 -81 -115 35 -261 163 -206
33 13 540 515 562 555 33 59 3 156 -56 186 -33 17 -99 16 -131 -2z"/>
<path d="M3441 1523 c-19 -10 -44 -31 -55 -46 -20 -28 -21 -40 -21 -425 0
-397 0 -397 23 -429 29 -41 68 -60 120 -58 50 2 87 26 114 75 17 33 18 59 16
420 -3 353 -5 387 -21 412 -41 59 -117 82 -176 51z"/>
</g>
</svg>
