<?xml version="1.0" standalone="no"?>
<!DOCTYPE svg PUBLIC "-//W3C//DTD SVG 20010904//EN"
 "http://www.w3.org/TR/2001/REC-SVG-20010904/DTD/svg10.dtd">
<svg version="1.0" xmlns="http://www.w3.org/2000/svg"
 width="270.000000pt" height="270.000000pt" viewBox="0 0 270.000000 270.000000"
 preserveAspectRatio="xMidYMid meet">
<metadata>
Created by potrace 1.11, written by Peter Selinger 2001-2013
</metadata>
<g transform="translate(0.000000,270.000000) scale(0.100000,-0.100000)"
fill="#000000" stroke="none">
<path d="M1890 2637 c-3 -3 -21 -7 -40 -10 -47 -7 -109 -26 -141 -42 -18 -10
-36 -11 -65 -5 -81 19 -153 25 -289 24 -206 -1 -364 -39 -550 -132 -75 -37
-165 -92 -185 -112 -3 -3 -21 -17 -40 -31 -173 -129 -341 -376 -410 -603 -48
-154 -55 -206 -54 -391 0 -99 -3 -182 -7 -185 -18 -14 -79 -165 -94 -233 -31
-140 -7 -299 63 -427 106 -195 311 -357 515 -410 125 -31 289 -20 422 29 32
12 58 16 71 11 89 -34 370 -42 503 -15 465 94 820 393 971 820 73 208 92 434
54 639 -2 10 5 35 15 55 86 167 90 383 12 555 -40 88 -83 149 -159 223 -158
156 -330 238 -512 242 -42 1 -78 0 -80 -2z m-380 -82 c36 -3 74 -7 85 -9 11
-3 22 -5 24 -5 2 -1 -14 -14 -35 -29 -114 -83 -210 -219 -295 -417 -26 -60
-90 -260 -103 -325 -3 -14 -17 -76 -30 -138 -13 -62 -27 -129 -30 -150 -10
-74 -78 -364 -105 -455 -91 -292 -201 -478 -361 -609 -40 -33 -43 -32 -136 60
-311 304 -436 738 -333 1157 123 503 557 878 1063 922 39 3 72 7 74 8 4 3 51
0 182 -10z m956 -224 c73 -41 150 -176 178 -311 20 -92 9 -214 -26 -308 l-21
-56 -28 86 c-60 184 -161 349 -300 491 l-57 57 28 20 c74 53 156 60 226 21z
m-250 -109 c45 -40 135 -149 176 -212 95 -147 156 -308 183 -488 13 -86 13
-295 1 -362 -4 -19 -8 -42 -10 -50 -43 -224 -163 -447 -331 -615 -104 -104
-187 -166 -300 -223 -135 -68 -204 -92 -350 -123 -70 -15 -336 -16 -410 -2
l-50 9 41 21 c73 38 198 138 267 213 158 171 276 390 361 673 27 90 110 430
132 547 12 57 77 310 96 370 34 107 128 270 156 270 4 0 21 -12 38 -28z
m-2016 -1339 c68 -169 152 -295 287 -430 l92 -93 -42 -24 c-166 -97 -314 -30
-426 190 -16 32 -37 87 -45 120 -32 123 -12 307 42 406 l26 46 17 -68 c10 -38
32 -104 49 -147z"/>
</g>
</svg>
